# xmcd
#
# Track frame offsets:
#	150
#	20481
#	35542
#	51324
#	67798
#	83672
#	100842
#	122045
#	139375
#	153765
#	170388
#	183481
#	198671
#	216416
#	233035
#	249871
#	267308
#	283554
#
# Disc length: 4019 seconds
#
# Revision: 1
# Processed by: cddbd v1.4PL0 Copyright (c) Steve Scherf et al.
# Submitted via: audiograbber 1.80
#
DISCID=fb0fb112
DTITLE=Various Artist - Hott Trakks 82
DYEAR=1900
DGENRE=
TTITLE0=Nitty Gritty Dirt Band F. Taj Mahal With Vassar - Fishin' Blues
TTITLE1=Johnny Cash - Personal Jesus
TTITLE2=Deanna Carter - There's No Limit
TTITLE3=Adam Gregory - Could Have Fooled Me
TTITLE4=Diamond Rio - I Believe
TTITLE5=Great Big Sea - Clearest Indication
TTITLE6=Blue Rodeo - Bulletproof
TTITLE7=Lee Ann Womack - Forever Everyday
TTITLE8=Cyndi Thomson - If You Could Only See
TTITLE9=Gary Allan - Man To Man
TTITLE10=Brad Martin - Rub Me The Right Way
TTITLE11=Darryl Worley - Family Tree
TTITLE12=Blake Shelton - The Baby
TTITLE13=Tracy Byrd - Lately ( Dreamin' ' Bout Babies )
TTITLE14=Chris Cagle - What A Beautiful Day
TTITLE15=Joe Nichols - Brokenheartsville
TTITLE16=Pit Monkey - I Drove All Night
TTITLE17=Great Divide - Lost In The Night
EXTD=
EXTT0=
EXTT1=
EXTT2=
EXTT3=
EXTT4=
EXTT5=
EXTT6=
EXTT7=
EXTT8=
EXTT9=
EXTT10=
EXTT11=
EXTT12=
EXTT13=
EXTT14=
EXTT15=
EXTT16=
EXTT17=
PLAYORDER=
